<svg xmlns="http://www.w3.org/2000/svg" xmlns:xlink="http://www.w3.org/1999/xlink" width="28" height="27" viewBox="0 0 28 27"><defs><path id="yh0ia" d="M484.8 822.42a.98.98 0 0 0-.17.28l-.03.1c-.03.07-.05.15-.05.24l-.01.09v.05c0 .1.01.2.04.28l.01.03a1 1 0 0 0 .15.27c0 .01 0 .03.02.04l4.12 5.12c.31.4.84.41 1.19.05.34-.37.36-.99.05-1.38l-2.22-2.76c3.33.53 6.65-.09 6.8-.12 10.22-1.57 17.66-10.77 16.6-20.5-.06-.48-.41-.83-.82-.85a.8.8 0 0 0-.13.01c-.46.07-.8.56-.73 1.1.95 8.67-5.84 16.88-15.16 18.32-.04 0-3.46.65-6.65.06l3.6-2c.41-.24.6-.83.4-1.3-.2-.5-.71-.7-1.13-.46l-5.67 3.17a.9.9 0 0 0-.2.16z"/></defs><g><g transform="translate(-484 -803)"><use fill="#fff" xlink:href="#yh0ia"/></g></g></svg>