<svg xmlns="http://www.w3.org/2000/svg" xmlns:xlink="http://www.w3.org/1999/xlink" width="10" height="12" viewBox="0 0 10 12"><defs><path id="3siya" d="M563.03 116.74a3.54 3.54 0 0 1-.04-.53c0-2.32 2.24-4.2 5-4.2s5 1.88 5 4.2c0 .18-.01.35-.04.52-.42 3.29-4.56 7.08-4.56 7.08a.79.79 0 0 1-.22.15l-.14.04-.14-.04a.78.78 0 0 1-.22-.15s-4.2-3.79-4.64-7.07zm1.75-.53c0 1.5 1.44 2.71 3.21 2.71 1.78 0 3.22-1.22 3.22-2.7 0-1.5-1.44-2.72-3.22-2.72-1.77 0-3.21 1.22-3.21 2.71z"/></defs><g><g transform="translate(-563 -112)"><use fill="#fff" xlink:href="#3siya"/></g></g></svg>