<svg xmlns="http://www.w3.org/2000/svg" xmlns:xlink="http://www.w3.org/1999/xlink" width="11" height="11" viewBox="0 0 11 11"><defs><path id="8ymma" d="M1151.2 129.77a9.51 9.51 0 0 0 4.03 4.03l1.35-1.34c.18-.19.43-.25.6-.13.68.25 1.41.37 2.2.37.38 0 .62.24.62.61v2.08c0 .37-.24.61-.61.61a10.38 10.38 0 0 1-10.39-10.39c0-.37.24-.61.61-.61h2.14c.37 0 .61.24.61.61 0 .73.12 1.47.37 2.2.06.18 0 .43-.12.61z"/></defs><g><g transform="translate(-1149 -125)"><use fill="#fff" xlink:href="#8ymma"/></g></g></svg>