<svg xmlns="http://www.w3.org/2000/svg" xmlns:xlink="http://www.w3.org/1999/xlink" width="13" height="14" viewBox="0 0 13 14"><defs><path id="76g2a" d="M387.47 115.2a.35.35 0 0 1-.57-.02c-.79-1.2-2-2.09-3.43-2.43a.36.36 0 0 1-.22-.54 2.56 2.56 0 0 1 4.75 1.4c0 .6-.2 1.15-.53 1.59zm-.98 1.01a5.77 5.77 0 0 1-1.21 7.08l.48.68c.2.3.14.7-.15.9a.64.64 0 0 1-.9-.15l-.48-.68a5.58 5.58 0 0 1-5.42 0l-.48.68a.64.64 0 0 1-.9.16.66.66 0 0 1-.15-.91l.48-.68a5.76 5.76 0 0 1 3.76-10.05 5.69 5.69 0 0 1 4.97 2.97zm-1.38.8a4.1 4.1 0 0 0-4.22-2.1 4.1 4.1 0 0 0-3.46 4.08 4.12 4.12 0 0 0 4.09 4.14 4.12 4.12 0 0 0 3.6-6.12zm-1.54 3.8a.45.45 0 0 1-.24-.07l-1.5-.93a.74.74 0 0 1-.32.08.77.77 0 1 1-.43-1.39l.07-1.99c0-.25.22-.45.47-.44.25.01.44.22.43.48l-.07 1.98c.14.11.24.27.27.46l1.56.97c.21.13.28.42.15.63a.45.45 0 0 1-.39.22zm-4.03-8.05a5.7 5.7 0 0 0-3.42 2.44.35.35 0 0 1-.56.03 2.61 2.61 0 0 1 2.02-4.23c.92 0 1.72.5 2.18 1.23.06.1.07.21.02.32a.35.35 0 0 1-.24.2z"/></defs><g><g transform="translate(-375 -111)"><use fill="#fff" xlink:href="#76g2a"/></g></g></svg>