<svg xmlns="http://www.w3.org/2000/svg" xmlns:xlink="http://www.w3.org/1999/xlink" width="83" height="83" viewBox="0 0 83 83"><defs><path id="mjeya" d="M452.8 838H380.2c-2.87 0-5.17-2.84-5.17-5.7v-72.65c0-2.87 2.3-4.68 5.17-4.68h72.62c2.86 0 5.2 1.81 5.2 4.68v72.64c0 2.87-2.34 5.7-5.2 5.7zm-62.22-77.84h-10.37v72.65h10.37zm47.99 0h-45.4v72.65h45.4zm14.26 0h-11.67v72.65h11.67zm-6.48 1.3c.71 0 1.3.58 1.3 1.3v2.6a1.3 1.3 0 1 1-2.6 0v-2.6c0-.72.58-1.3 1.3-1.3zm0 10.38c.71 0 1.3.58 1.3 1.3v5.18a1.3 1.3 0 1 1-2.6 0v-5.19c0-.71.58-1.3 1.3-1.3zm0 12.97c.71 0 1.3.58 1.3 1.3v5.19a1.3 1.3 0 1 1-2.6 0v-5.2c0-.71.58-1.3 1.3-1.3zm0 12.97c.71 0 1.3.58 1.3 1.3v5.19a1.3 1.3 0 1 1-2.6 0v-5.2c0-.7.58-1.29 1.3-1.29zm0 12.97c.71 0 1.3.58 1.3 1.3v5.19a1.3 1.3 0 1 1-2.6 0v-5.19c0-.72.58-1.3 1.3-1.3zm0 12.98c.71 0 1.3.58 1.3 1.3v2.59a1.3 1.3 0 1 1-2.6 0v-2.6c0-.71.58-1.3 1.3-1.3zM403.55 778a2.6 2.6 0 0 1 2.6 0l27.23 15.72a2.6 2.6 0 0 1 0 4.5l-27.23 15.73a2.59 2.59 0 0 1-3.9-2.25v-31.46c0-.92.5-1.78 1.3-2.24zm3.9 29.2l19.44-11.23-19.45-11.23zm13.37-10.5a1.3 1.3 0 0 1-1.8.35l-7.78-5.19a1.3 1.3 0 0 1 1.44-2.16l7.78 5.2c.6.4.76 1.2.36 1.8zm-35.42-35.24c.71 0 1.3.58 1.3 1.3v2.6a1.3 1.3 0 1 1-2.6 0v-2.6c0-.72.58-1.3 1.3-1.3zm0 10.38c.71 0 1.3.58 1.3 1.3v5.18a1.3 1.3 0 1 1-2.6 0v-5.19c0-.71.58-1.3 1.3-1.3zm0 12.97c.71 0 1.3.58 1.3 1.3v5.19a1.3 1.3 0 1 1-2.6 0v-5.2c0-.71.58-1.3 1.3-1.3zm0 12.97c.71 0 1.3.58 1.3 1.3v5.19a1.3 1.3 0 1 1-2.6 0v-5.2c0-.7.58-1.29 1.3-1.29zm0 12.97c.71 0 1.3.58 1.3 1.3v5.19a1.3 1.3 0 1 1-2.6 0v-5.19c0-.72.58-1.3 1.3-1.3zm0 12.98c.71 0 1.3.58 1.3 1.3v2.59a1.3 1.3 0 1 1-2.6 0v-2.6c0-.71.58-1.3 1.3-1.3z"/></defs><g><g transform="translate(-375 -755)"><use fill="#fff" xlink:href="#mjeya"/></g></g></svg>